<svg xmlns="http://www.w3.org/2000/svg" viewBox="0 0 175 35" width="175" height="35" role="img" aria-label="pillar-csi"><title>pillar-csi</title>
<!-- Generated by assets/brand/build.py; edit the script, not this file. -->
<path fill="#112A23" d="M 2.48 32.86 L 2.48 7.09 L 7.02 7.09 L 7.49 10.08 L 7.81 10.08 Q 9.14 8.17 11.07 7.41 Q 13 6.66 15.26 6.66 Q 18.18 6.66 20.38 7.74 Q 22.57 8.82 23.81 11.01 Q 25.06 13.21 25.06 16.56 Q 25.06 19.90 23.83 22.12 Q 22.61 24.33 20.47 25.41 Q 18.32 26.49 15.52 26.49 Q 14.11 26.49 12.76 26.19 Q 11.41 25.88 10.3 25.27 Q 9.18 24.66 8.39 23.72 L 8.1 23.72 L 8.1 32.86 Z M 13.79 21.99 Q 15.55 21.99 16.79 21.36 Q 18.04 20.73 18.68 19.58 Q 19.33 18.43 19.33 16.84 L 19.33 16.30 Q 19.33 14.68 18.68 13.51 Q 18.04 12.34 16.78 11.73 Q 15.52 11.12 13.72 11.12 Q 11.95 11.12 10.67 11.77 Q 9.4 12.42 8.73 13.59 Q 8.06 14.76 8.06 16.41 L 8.06 16.70 Q 8.06 17.92 8.44 18.91 Q 8.82 19.90 9.56 20.59 Q 10.3 21.27 11.36 21.63 Q 12.42 21.99 13.79 21.99 Z M 28.87 4.17 L 28.87 0.00 L 34.49 0.00 L 34.49 4.17 Z M 28.87 26.06 L 28.87 7.09 L 34.49 7.09 L 34.49 26.06 Z M 39.1 26.06 L 39.1 0.00 L 44.71 0.00 L 44.71 26.06 Z M 49.32 26.06 L 49.32 0.00 L 54.94 0.00 L 54.94 26.06 Z M 66.78 26.49 Q 65.05 26.49 63.58 26.22 Q 62.1 25.95 60.98 25.32 Q 59.87 24.69 59.24 23.61 Q 58.61 22.53 58.61 20.88 Q 58.61 18.61 59.87 17.29 Q 61.13 15.98 63.41 15.40 Q 65.7 14.83 68.78 14.67 Q 71.86 14.50 75.49 14.50 L 75.49 13.82 Q 75.49 12.63 74.92 11.95 Q 74.34 11.26 73.17 10.96 Q 72 10.65 70.13 10.65 Q 68.72 10.65 67.55 10.85 Q 66.38 11.05 65.7 11.46 Q 65.02 11.88 65.02 12.52 L 65.02 12.88 L 59.36 12.88 Q 59.33 12.74 59.31 12.61 Q 59.29 12.49 59.29 12.31 Q 59.29 10.62 60.55 9.34 Q 61.81 8.06 64.31 7.36 Q 66.82 6.66 70.52 6.66 Q 73.98 6.66 76.34 7.27 Q 78.7 7.88 79.92 9.28 Q 81.14 10.69 81.14 13.03 L 81.14 20.98 Q 81.14 21.63 81.41 22.01 Q 81.68 22.39 82.33 22.39 L 84.2 22.39 L 84.2 25.84 Q 83.77 26.02 82.76 26.26 Q 81.76 26.49 80.53 26.49 Q 78.88 26.49 77.92 26.11 Q 76.97 25.74 76.54 25.07 Q 76.1 24.40 75.92 23.61 L 75.64 23.61 Q 74.63 24.51 73.24 25.16 Q 71.86 25.81 70.24 26.15 Q 68.62 26.49 66.78 26.49 Z M 68.26 22.50 Q 69.26 22.50 70.51 22.26 Q 71.75 22.03 72.9 21.58 Q 74.05 21.13 74.77 20.44 Q 75.49 19.76 75.49 18.79 L 75.49 17.78 Q 71.64 17.78 69.16 18.07 Q 66.67 18.36 65.45 18.97 Q 64.22 19.58 64.22 20.70 Q 64.22 21.45 64.82 21.83 Q 65.41 22.21 66.35 22.35 Q 67.28 22.50 68.26 22.50 Z M 86.33 26.06 L 86.33 7.09 L 90.86 7.09 L 91.26 10.36 L 91.55 10.36 Q 92.02 9.32 92.83 8.47 Q 93.64 7.63 94.75 7.14 Q 95.87 6.66 97.27 6.66 Q 97.92 6.66 98.57 6.75 Q 99.22 6.84 99.76 7.02 L 99.76 11.73 L 96.98 11.73 Q 95.62 11.73 94.66 12.18 Q 93.71 12.63 93.11 13.41 Q 92.52 14.18 92.23 15.13 Q 91.94 16.09 91.94 17.13 L 91.94 26.06 Z M 101.66 18.68 L 101.66 13.68 L 113.04 13.68 L 113.04 18.68 Z M 128.2 26.49 Q 124.45 26.49 121.77 25.39 Q 119.09 24.30 117.65 22.08 Q 116.21 19.87 116.21 16.56 Q 116.21 13.24 117.65 11.05 Q 119.09 8.85 121.77 7.75 Q 124.45 6.66 128.2 6.66 Q 130.54 6.66 132.61 7.14 Q 134.68 7.63 136.22 8.62 Q 137.77 9.61 138.64 11.08 Q 139.5 12.56 139.5 14.54 L 133.81 14.54 Q 133.81 13.32 133.06 12.49 Q 132.3 11.66 131.02 11.21 Q 129.74 10.76 128.2 10.76 Q 126.22 10.76 124.85 11.41 Q 123.48 12.06 122.76 13.26 Q 122.04 14.47 122.04 16.20 L 122.04 16.92 Q 122.04 18.61 122.78 19.83 Q 123.52 21.06 124.94 21.72 Q 126.36 22.39 128.41 22.39 Q 129.92 22.39 131.2 21.90 Q 132.48 21.42 133.25 20.55 Q 134.03 19.69 134.03 18.57 L 139.5 18.57 Q 139.5 20.59 138.62 22.08 Q 137.74 23.58 136.21 24.55 Q 134.68 25.52 132.61 26.01 Q 130.54 26.49 128.2 26.49 Z M 153.11 26.49 Q 150.98 26.49 149.04 26.15 Q 147.1 25.81 145.57 25.12 Q 144.04 24.44 143.14 23.32 Q 142.24 22.21 142.24 20.70 Q 142.24 20.52 142.25 20.37 Q 142.27 20.23 142.31 20.08 L 148.07 20.08 Q 148.07 20.16 148.05 20.26 Q 148.03 20.37 148.03 20.44 Q 148.03 21.27 148.75 21.78 Q 149.47 22.28 150.64 22.51 Q 151.81 22.75 153.14 22.75 Q 154.4 22.75 155.61 22.60 Q 156.82 22.46 157.61 22.05 Q 158.4 21.63 158.4 20.77 Q 158.4 19.90 157.46 19.51 Q 156.53 19.11 154.85 18.91 Q 153.18 18.72 150.95 18.39 Q 149.26 18.14 147.8 17.74 Q 146.34 17.35 145.24 16.72 Q 144.14 16.09 143.53 15.08 Q 142.92 14.07 142.92 12.60 Q 142.92 11.01 143.68 9.88 Q 144.43 8.74 145.82 8.02 Q 147.2 7.30 149.15 6.98 Q 151.09 6.66 153.43 6.66 Q 155.48 6.66 157.3 6.98 Q 159.12 7.30 160.49 7.99 Q 161.86 8.67 162.65 9.68 Q 163.44 10.69 163.44 12.02 Q 163.44 12.16 163.44 12.31 Q 163.44 12.45 163.4 12.56 L 157.64 12.56 L 157.64 12.38 Q 157.64 11.66 157.03 11.23 Q 156.42 10.80 155.45 10.60 Q 154.48 10.40 153.36 10.40 Q 152.96 10.40 152.17 10.44 Q 151.38 10.47 150.53 10.62 Q 149.69 10.76 149.11 11.08 Q 148.54 11.41 148.54 12.02 Q 148.54 12.78 149.44 13.14 Q 150.34 13.50 151.79 13.68 Q 153.25 13.86 154.94 14.07 Q 156.74 14.29 158.38 14.61 Q 160.02 14.94 161.3 15.57 Q 162.58 16.20 163.3 17.28 Q 164.02 18.36 164.02 20.08 Q 164.02 21.88 163.26 23.13 Q 162.5 24.37 161.08 25.11 Q 159.66 25.84 157.63 26.17 Q 155.59 26.49 153.11 26.49 Z M 167.62 4.17 L 167.62 0.00 L 173.23 0.00 L 173.23 4.17 Z M 167.62 26.06 L 167.62 7.09 L 173.23 7.09 L 173.23 26.06 Z"/>
</svg>
